<svg width="24" height="24" viewBox="0 0 24 24" fill="none" xmlns="http://www.w3.org/2000/svg">
<path d="M11 1.00003C11 0.447746 11.4477 3.05176e-05 12 3.05176e-05C12.5523 3.05176e-05 13 0.447746 13 1.00003V1.44003V3.36003V5.72003C13 6.27232 12.5523 6.72003 12 6.72003C11.4477 6.72003 11 6.27232 11 5.72003V1.00003Z" fill="#481E00"/>
<path d="M11.9193 6.36649L12.0014 6.41883L12.0826 6.36522C16.0581 3.74138 18.9856 3.74338 20.913 5.11632C22.8558 6.50032 23.85 9.32067 23.85 12.48C23.85 18.7538 18.5504 23.85 12 23.85C5.4496 23.85 0.15 18.7538 0.15 12.48C0.15 10.9001 0.336365 9.37217 0.752371 8.05902C1.16857 6.74526 1.81151 5.65593 2.71802 4.93932C4.51464 3.51907 7.43472 3.5063 11.9193 6.36649Z" fill="#AD0000" stroke="#7E0000" stroke-width="0.3"/>
<path d="M12.139 4.76408C12.4126 4.50001 14.0774 2.83033 14.8331 2.62706C15.5888 2.42379 16.5974 2.23862 17.1023 2.2142C17.6073 2.18978 16.8104 3.03312 16.8104 3.03312L15.9895 3.82535L15.2211 4.50491C15.2211 4.50491 14.8948 4.88165 14.3475 5.4098C13.8002 5.93795 13.8002 5.93795 13.5266 6.20203C13.2529 6.46611 13.064 5.72271 12.7904 5.98679C12.5167 6.25086 12.0118 6.27528 12.0118 6.27528C12.0118 6.27528 12.0542 5.77155 12.3278 5.50747C12.6015 5.2434 11.8653 5.02816 12.139 4.76408Z" fill="#20510F"/>
</svg>
