<svg width="26" height="20" viewBox="0 0 26 20" fill="none" xmlns="http://www.w3.org/2000/svg">
<path d="M1.02875 16.1151C0.458081 14.4911 8.54016 13.7399 11.3007 12.867C14.7246 11.7844 16.4366 9.619 16.4366 9.619C16.4366 9.619 18.3138 7.54938 19.2899 6.37094C19.2899 6.37094 19.6513 6.05319 19.8606 5.8296C21.1246 4.47874 21.0019 2.58155 21.5725 1.49886C21.9712 0.742509 22.9855 0.931601 23.2845 1.49887C23.8552 2.58155 23.6802 3.81775 23.8552 5.28826C24.0614 7.02056 25.0665 7.87695 24.9965 9.61899C24.8785 12.5538 23.2873 14.1338 21.0019 16.1151C17.8806 18.8211 14.9572 19.2667 10.73 19.3632C8.0196 19.425 3.88205 18.2805 3.88205 18.2805C3.88205 18.2805 1.48001 17.3993 1.02875 16.1151Z" fill="#DAC400" stroke="#B3A101" stroke-width="0.3"/>
<mask id="mask0_4_33" style="mask-type:alpha" maskUnits="userSpaceOnUse" x="0" y="0" width="26" height="20">
<path d="M1.02875 16.1151C0.458081 14.4911 8.54016 13.7399 11.3007 12.867C14.7246 11.7844 16.4366 9.619 16.4366 9.619C16.4366 9.619 18.3138 7.54938 19.2899 6.37094C19.2899 6.37094 19.6513 6.05319 19.8606 5.8296C21.1246 4.47874 21.0019 2.58155 21.5725 1.49886C21.9712 0.742509 22.9855 0.931601 23.2845 1.49887C23.8552 2.58155 23.6802 3.81775 23.8552 5.28826C24.0614 7.02056 25.0665 7.87695 24.9965 9.61899C24.8785 12.5538 23.2873 14.1338 21.0019 16.1151C17.8806 18.8211 14.9572 19.2667 10.73 19.3632C8.0196 19.425 3.88205 18.2805 3.88205 18.2805C3.88205 18.2805 1.48001 17.3993 1.02875 16.1151Z" fill="#DAC400" stroke="#B3A101" stroke-width="0.3"/>
</mask>
<g mask="url(#mask0_4_33)">
<ellipse cx="1.59942" cy="16.1151" rx="1.14132" ry="1.08268" fill="black"/>
<ellipse cx="22.2573" cy="1.0658" rx="1.25545" ry="1.19095" fill="black"/>
</g>
</svg>
