<svg width="17" height="25" viewBox="0 0 17 25" fill="none" xmlns="http://www.w3.org/2000/svg">
<path d="M8.11866 7.1407C8.11866 7.1407 8.52378 5.63132 8.11866 4.82109C7.8322 4.24817 7.53178 3.94774 6.95885 3.66128C6.14862 3.25616 4.63924 4.24118 4.05933 4.24118" stroke="white" stroke-width="0.5"/>
<rect x="5.79905" y="7.14072" width="4.63924" height="2.31962" fill="#3C3C3C"/>
<path d="M5.79905 9.46034V7.14072H10.4383V9.46034" stroke="white" stroke-width="0.3"/>
<circle cx="8.11866" cy="16.4192" r="7.96866" fill="#3C3C3C" stroke="white" stroke-width="0.3"/>
<circle cx="8.11866" cy="16.4192" r="7.96866" fill="#3C3C3C" stroke="white" stroke-width="0.3"/>
<path d="M8.11866 22.7004C9.85838 22.7004 13.4538 21.5406 13.9177 16.9013" stroke="#222222"/>
<path d="M6.23358 4.43809C5.7776 5.43107 4.82138 5.79569 3.73344 5.6942C3.05381 5.6308 2.14504 4.96481 2.14504 4.96481C2.14504 4.96481 2.47806 4.94508 2.80172 4.83888L2.11264 3.98826L3.14157 3.53424C2.80147 3.044 2.26258 2.61462 2.26258 2.61462C2.26258 2.61462 2.93946 2.74351 3.53293 2.68196L3.20673 1.60567L4.24239 1.44452C4.11768 1.18975 3.96852 0.993815 3.96852 0.993815C3.96852 0.993815 5.0659 1.24905 5.55692 1.72321C6.34292 2.48222 6.68955 3.44512 6.23358 4.43809Z" fill="url(#paint0_linear_13_21)"/>
<path d="M2.80172 4.83888C2.99804 4.77447 3.19091 4.67824 3.30394 4.5353C3.83317 3.86604 2.26258 2.61462 2.26258 2.61462C2.26258 2.61462 2.93946 2.74351 3.53293 2.68196M2.80172 4.83888C2.47806 4.94508 2.14504 4.96481 2.14504 4.96481C2.14504 4.96481 3.05381 5.6308 3.73344 5.6942C4.82138 5.79569 5.7776 5.43107 6.23358 4.43809C6.68955 3.44512 6.34292 2.48223 5.55692 1.72321C5.0659 1.24905 3.96852 0.993815 3.96852 0.993815C3.96852 0.993815 4.11768 1.18975 4.24239 1.44452M2.80172 4.83888L2.11264 3.98826L3.14157 3.53424L3.53293 2.68196M3.53293 2.68196C3.95263 2.63844 4.33063 2.49967 4.39802 2.15271C4.44084 1.93229 4.35087 1.66615 4.24239 1.44452M3.53293 2.68196L3.20673 1.60567L4.24239 1.44452" stroke="#ECBB00" stroke-width="0.1"/>
<defs>
<linearGradient id="paint0_linear_13_21" x1="2.26258" y1="2.61462" x2="6.23358" y2="4.43809" gradientUnits="userSpaceOnUse">
<stop stop-color="#EBFF00"/>
<stop offset="0.479167" stop-color="#EE5F00"/>
<stop offset="1" stop-color="#9B0000"/>
</linearGradient>
</defs>
</svg>
