<svg width="20" height="25" viewBox="0 0 20 25" fill="none" xmlns="http://www.w3.org/2000/svg">
<path d="M1.64115 20.6646C3.81997 16.6422 6.86936 8.03587 7.6748 6.58609C10.1888 2.06085 20.1066 9.74581 18.2337 11.6141C17.3025 12.5431 4.01682 23.3215 3.01122 23.6814C2.06442 24.0203 1.64115 24.1842 1.13835 23.6814C0.736106 23.2792 1.30595 21.5026 1.64115 20.6646Z" fill="#CA6100" stroke="#7E3E02" stroke-width="0.3"/>
<path d="M15.5813 2.70655C13.7418 1.30572 8.39264 4.26016 8.06037 5.88669C7.56196 5.88668 16.0349 11.2542 18.0285 11.2542C20.0221 11.2542 19.1656 5.47339 17.5925 4.21497C15.0785 2.20376 17.7497 4.35785 15.5813 2.70655Z" fill="#20510F" stroke="#18410A" stroke-width="0.3"/>
<rect x="12.1397" width="2.01122" height="5.02804" rx="1" transform="rotate(23.4519 12.1397 0)" fill="#18410A"/>
<rect x="11.8565" y="5.22058" width="2.01122" height="2.01122" rx="1" transform="rotate(23.4519 11.8565 5.22058)" fill="#18410A"/>
<rect x="14.2679" y="6.2262" width="2.01122" height="3.01682" rx="1" transform="rotate(23.4519 14.2679 6.2262)" fill="#18410A"/>
<rect x="16.074" y="0.192535" width="2.01122" height="5.02804" rx="1" transform="rotate(23.4519 16.074 0.192535)" fill="#18410A"/>
<rect x="18.0852" y="4.21498" width="2.01122" height="5.02804" rx="1" transform="rotate(23.4519 18.0852 4.21498)" fill="#18410A"/>
<rect x="7.72653" y="8.23741" width="3.01682" height="1.00561" rx="0.502804" transform="rotate(43.5533 7.72653 8.23741)" fill="#7E3E02"/>
<rect x="10.7434" y="12.2598" width="3.01682" height="1.00561" rx="0.502804" transform="rotate(43.5533 10.7434 12.2598)" fill="#7E3E02"/>
<rect x="14.7658" y="10.2486" width="3.01682" height="1.00561" rx="0.502804" transform="rotate(43.5533 14.7658 10.2486)" fill="#7E3E02"/>
<rect x="3.7041" y="21.3103" width="1.00561" height="1.00561" rx="0.502804" transform="rotate(43.5533 3.7041 21.3103)" fill="#7E3E02"/>
<rect x="3.7041" y="17.2879" width="2.01122" height="1.00561" rx="0.502804" transform="rotate(43.5533 3.7041 17.2879)" fill="#7E3E02"/>
<rect x="6.72093" y="13.2654" width="6.03365" height="1.00561" rx="0.502804" transform="rotate(43.5533 6.72093 13.2654)" fill="#7E3E02"/>
</svg>
