<svg width="26" height="22" viewBox="0 0 26 22" fill="none" xmlns="http://www.w3.org/2000/svg">
<path d="M1 14.5C0.999977 12.25 2.79584 9.25 5.5 9.25C6.24999 9.25 6.28726 9.36127 7 9.25C9.63561 8.83853 14.745 5.96784 17.5 4L22 6.25C22.75 8.5 22.3 14.35 14.5 19.75C5.97893 24.0105 3.00324 20.5295 1.74999 17.5C1.23832 16.2631 1.00001 15.115 1 14.5Z" fill="#8E0078" stroke="#600050" stroke-width="0.3"/>
<path d="M18.7778 3.25C17.8889 3.25 17.5926 3.5 17 4C16.1111 4.75 15.8148 6 16.1111 7C16.1111 7 16.5091 6.25 17 6.25C17.8889 6.25 17.8889 4.75 17.8889 5.5C17.8889 5.91422 18.7778 6.25 18.7778 6.25C18.7778 6.25 18.8876 6.72214 18.7778 7C18.6253 7.38592 18.236 7.45711 17.8889 7.75C17.5418 8.04289 16.6529 8.20711 17 8.5C17.2455 8.70711 18.7778 8.5 18.7778 8.5C18.7778 8.5 19.9429 8.15209 20.5556 7.75C20.9431 7.4957 21.4444 7 21.4444 7V7.75C21.4444 7.75 22.042 9.64853 23.2222 10C23.8769 10.195 25 10.5858 25 10C25 9.58579 24.1111 10 24.1111 9.25L24.1111 8.5C24.1111 6.12829 24.1111 7 24.1111 6.25L24.1111 5.5C24.1111 5.5 24.1602 5.03995 24.1111 4.75C24.0013 4.10165 23.1627 3.903 23.2222 3.25C23.2975 2.42401 25 1.75 25 1.75C25 1.15 24.4074 1 24.1111 1C23.8148 1 23.2222 1 22.3333 1.75C21.8305 2.17426 22.037 3 21.4444 3.25H18.7778Z" fill="#20510F" stroke="#18410A" stroke-width="0.3"/>
<path d="M6 17.25C6.75 18.25 9.15 19.65 12.75 17.25C16.35 14.85 17.75 12.75 18 12" stroke="#600050"/>
</svg>
